<svg width="24" height="24" viewBox="0 0 24 24" fill="none" xmlns="http://www.w3.org/2000/svg">
<path d="M6.92578 4.10862C7.82751 3.85331 8.75578 4.07324 9.77344 4.50609C10.7926 4.9396 12.0483 5.65376 13.6465 6.56175C15.2502 7.47284 16.5181 8.09329 17.3916 8.68577C18.2802 9.28859 18.8879 9.93849 19.2764 10.9563L19.3516 11.1653L19.3799 11.2776C19.6971 13.1278 19.082 14.2975 18.335 14.6711L17.665 13.3293C17.5857 13.369 18.1426 13.0429 17.9102 11.591C17.6532 10.8588 17.2715 10.4176 16.5498 9.92796C15.7363 9.37613 14.642 8.8531 12.9053 7.86644C11.2742 6.93981 10.1074 6.27769 9.18652 5.88597C8.26438 5.49375 7.7334 5.43882 7.33399 5.55198C6.92101 5.66905 6.544 5.8921 6.23926 6.19944C5.94246 6.4989 5.72909 6.99766 5.61524 8.00316C5.50162 9.00715 5.5 10.3605 5.5 12.2502C5.5 14.1399 5.50164 15.4933 5.61524 16.4973C5.71487 17.3774 5.89053 17.8692 6.13184 18.1789L6.23926 18.301L6.29883 18.3694C6.31743 18.3934 6.335 18.4185 6.35059 18.4446C6.71296 19.0527 7.28781 19.3061 7.89844 19.384C8.49679 19.4603 9.046 19.3514 9.23535 19.2951L11.6816 18.1496L12 18.8293L12.3184 19.508L9.81836 20.6789C9.79211 20.6912 9.7648 20.702 9.73731 20.7112C9.39568 20.825 8.5921 20.9849 7.70899 20.8723C6.82694 20.7598 5.7841 20.3593 5.10938 19.2873C4.49788 18.628 4.24501 17.7343 4.12402 16.6653C3.99865 15.5569 4 14.1026 4 12.2502C4 10.3978 3.99863 8.94355 4.12402 7.83519C4.24926 6.72875 4.51451 5.80899 5.17383 5.14378C5.65965 4.65369 6.26301 4.29643 6.92578 4.10862Z" fill="#141B34"/>
<path d="M14.417 12C14.8309 12.0002 15.1668 12.336 15.167 12.75V15.667H18.083C18.4971 15.667 18.8328 16.0029 18.833 16.417C18.8328 16.8311 18.4971 17.167 18.083 17.167H15.167V20.083C15.167 20.4971 14.8311 20.8328 14.417 20.833C14.0029 20.8328 13.667 20.4971 13.667 20.083V17.167H10.75C10.336 17.1668 10.0002 16.831 10 16.417C10.0002 16.003 10.336 15.6672 10.75 15.667H13.667V12.75C13.6672 12.336 14.003 12.0002 14.417 12Z" fill="#141B34"/>
</svg>
