<svg width="24" height="22" viewBox="0 0 24 22" fill="none" xmlns="http://www.w3.org/2000/svg">
<g clip-path="url(#clip0_43_13)">
<path d="M7.02781 0.256454C7.04671 0.25666 7.06561 0.256866 7.08509 0.257079C7.29108 0.261709 7.46438 0.283382 7.62455 0.420394C7.65951 0.451382 7.65951 0.451382 7.71943 0.467211C7.7262 0.480618 7.73298 0.494025 7.73996 0.507839C7.76028 0.514543 7.78061 0.521246 7.80155 0.528153C7.80832 0.548264 7.8151 0.568374 7.82208 0.589095C7.86316 0.637139 7.88301 0.64982 7.94526 0.67035C7.94526 0.690461 7.94526 0.710572 7.94526 0.731292C7.95881 0.731292 7.97236 0.731292 7.98632 0.731292C8.01816 0.763271 8.01816 0.763271 8.05433 0.8062C8.09745 0.856601 8.13995 0.903397 8.18778 0.949667C8.22857 0.991185 8.25187 1.0235 8.27375 1.07663C8.2873 1.07663 8.30085 1.07663 8.31481 1.07663C8.33196 1.098 8.33196 1.098 8.34945 1.1198C8.39871 1.18039 8.45093 1.22484 8.51209 1.27302C8.52151 1.28195 8.53094 1.29088 8.54064 1.30008C8.54064 1.31349 8.54064 1.3269 8.54064 1.34071C8.56097 1.34741 8.58129 1.35412 8.60223 1.36102C8.60223 1.37443 8.60223 1.38784 8.60223 1.40165C8.62256 1.40836 8.64288 1.41506 8.66382 1.42197C8.69847 1.46224 8.73268 1.50288 8.76648 1.54385C8.7868 1.55726 8.80713 1.57066 8.82807 1.58448C8.82807 1.59788 8.82807 1.61129 8.82807 1.62511C8.84839 1.63181 8.86872 1.63851 8.88966 1.64542C8.88966 1.65883 8.88966 1.67223 8.88966 1.68605C8.90321 1.68605 8.91676 1.68605 8.93072 1.68605C8.96256 1.71803 8.96256 1.71803 8.99873 1.76096C9.0556 1.82714 9.11413 1.88948 9.17708 1.95013C9.19487 1.96814 9.21265 1.98616 9.23098 2.00472C9.27914 2.05399 9.27914 2.05399 9.34133 2.09233C9.34133 2.11244 9.34133 2.13255 9.34133 2.15327C9.36165 2.15327 9.38198 2.15327 9.40292 2.15327C9.40292 2.17338 9.40292 2.19349 9.40292 2.21421C9.43002 2.22762 9.45712 2.24102 9.48504 2.25484C9.48504 2.26825 9.48504 2.28165 9.48504 2.29547C9.50536 2.30217 9.52569 2.30887 9.54663 2.31578C9.58047 2.35046 9.58047 2.35046 9.61592 2.39323C9.67051 2.45715 9.72612 2.50808 9.79299 2.55955C9.85459 2.631 9.85459 2.631 9.85459 2.68143C9.87491 2.68143 9.89524 2.68143 9.91618 2.68143C9.91618 2.70154 9.91618 2.72165 9.91618 2.74237C9.94328 2.74908 9.97038 2.75578 9.9983 2.76269C9.9983 2.7828 9.9983 2.80291 9.9983 2.82363C10.0186 2.82363 10.0389 2.82363 10.0599 2.82363C10.0667 2.84374 10.0734 2.86385 10.0804 2.88457C10.1007 2.89127 10.1211 2.89798 10.142 2.90488C10.1488 2.925 10.1556 2.94511 10.1625 2.96583C10.1914 2.98963 10.2204 3.01334 10.2498 3.03645C10.3044 3.08345 10.3496 3.13759 10.3963 3.19206C10.431 3.23279 10.431 3.23279 10.4795 3.27815C10.5116 3.31116 10.5116 3.31116 10.5116 3.35179C10.5234 3.35766 10.5353 3.36352 10.5475 3.36957C10.5903 3.39073 10.633 3.41189 10.6758 3.43305C10.6758 3.44645 10.6758 3.45986 10.6758 3.47367C11.4956 3.47367 12.3154 3.47367 13.16 3.47367C13.16 3.46027 13.16 3.44686 13.16 3.43305C13.1923 3.4067 13.1923 3.4067 13.2357 3.37718C13.2904 3.33807 13.3363 3.30145 13.3781 3.24895C13.4164 3.20215 13.447 3.17116 13.4936 3.13469C13.5544 3.09236 13.5544 3.09236 13.5706 3.02677C13.5909 3.02006 13.6112 3.01336 13.6322 3.00645C13.6576 2.97664 13.683 2.94675 13.7075 2.91615C13.7457 2.87206 13.7914 2.83904 13.8375 2.80331C13.851 2.7832 13.8646 2.76309 13.8785 2.74237C13.8921 2.74237 13.9056 2.74237 13.9196 2.74237C13.9245 2.73088 13.9294 2.71938 13.9344 2.70754C13.9662 2.65122 14.005 2.61332 14.0518 2.56843C14.0759 2.54514 14.0759 2.54514 14.1004 2.52138C14.127 2.49598 14.1537 2.47076 14.1808 2.446C14.2122 2.41553 14.2122 2.41553 14.2276 2.35641C14.258 2.34635 14.258 2.34635 14.2891 2.33609C14.3234 2.29553 14.3577 2.25491 14.3918 2.21421C14.4053 2.21421 14.4189 2.21421 14.4329 2.21421C14.4464 2.1874 14.46 2.16058 14.4739 2.13295C14.4875 2.13295 14.501 2.13295 14.515 2.13295C14.515 2.11284 14.515 2.09273 14.515 2.07201C14.5444 2.04138 14.5444 2.04138 14.5856 2.00853C14.6531 1.9524 14.7177 1.89458 14.7806 1.83332C14.796 1.81835 14.8114 1.80337 14.8273 1.78793C14.8683 1.74762 14.8683 1.74762 14.8845 1.68605C14.915 1.67599 14.915 1.67599 14.9461 1.66573C14.9716 1.63592 14.9969 1.60603 15.0214 1.57543C15.0596 1.53134 15.1054 1.49832 15.1514 1.46259C15.165 1.44248 15.1785 1.42237 15.1925 1.40165C15.206 1.40165 15.2196 1.40165 15.2335 1.40165C15.2403 1.38154 15.2471 1.36143 15.2541 1.34071C15.2875 1.30561 15.3215 1.2724 15.3567 1.23914C15.385 1.21172 15.4133 1.18421 15.4414 1.15662C15.455 1.14339 15.4686 1.13017 15.4826 1.11654C15.5221 1.07728 15.5221 1.07728 15.5542 1.031C15.5682 1.01337 15.5682 1.01337 15.5826 0.995374C15.5961 0.995374 15.6097 0.995374 15.6236 0.995374C15.6236 0.975263 15.6236 0.955152 15.6236 0.934432C15.6439 0.934432 15.6643 0.934432 15.6852 0.934432C15.6907 0.922281 15.6962 0.910131 15.7019 0.897613C15.7263 0.853207 15.7488 0.824466 15.7879 0.792234C15.8014 0.792234 15.815 0.792234 15.8289 0.792234C15.8336 0.780922 15.8382 0.769609 15.843 0.757954C15.9011 0.656764 16.0022 0.580945 16.0881 0.50276C16.1074 0.485059 16.1268 0.467357 16.1467 0.449119C16.1985 0.406269 16.1985 0.406269 16.2601 0.385955C16.2668 0.372548 16.2736 0.359141 16.2806 0.345327C16.3291 0.328743 16.3291 0.328743 16.3897 0.313587C16.4095 0.308533 16.4293 0.303479 16.4497 0.298272C16.4684 0.29369 16.4871 0.289107 16.5064 0.284386C16.5192 0.280847 16.532 0.277309 16.5451 0.273663C16.783 0.221115 17.0749 0.239857 17.2819 0.367804C17.5313 0.527476 17.5313 0.527476 17.574 0.629723C17.5876 0.636426 17.6011 0.64313 17.6151 0.650037C17.6218 0.670147 17.6286 0.690258 17.6356 0.710978C17.6508 0.723548 17.6508 0.723548 17.6664 0.736371C17.7123 0.789402 17.7088 0.846287 17.7177 0.914118C17.7313 0.920821 17.7448 0.927525 17.7588 0.934432C17.771 0.98847 17.771 0.98847 17.7806 1.05759C17.784 1.08136 17.7873 1.10514 17.7908 1.12964C17.7938 1.15237 17.7968 1.17509 17.7998 1.19851C17.8034 1.22507 17.8034 1.22507 17.807 1.25215C17.8117 1.28842 17.816 1.32472 17.8204 1.36102C17.8068 1.36102 17.7933 1.36102 17.7793 1.36102C17.7725 1.44817 17.7658 1.53532 17.7588 1.62511C17.7452 1.62511 17.7317 1.62511 17.7177 1.62511C17.7152 1.64731 17.7126 1.66952 17.71 1.6924C17.6972 1.7673 17.6972 1.7673 17.6561 1.82825C17.6426 1.82825 17.629 1.82825 17.6151 1.82825C17.6151 1.84836 17.6151 1.86847 17.6151 1.88919C17.5744 1.92346 17.5333 1.95731 17.4919 1.99076C17.4851 2.01087 17.4783 2.03098 17.4714 2.0517C17.4421 2.0759 17.4128 2.10002 17.3829 2.12335C17.3328 2.16652 17.2928 2.21654 17.2516 2.26793C17.2384 2.28156 17.2384 2.28156 17.225 2.29547C17.2114 2.29547 17.1979 2.29547 17.1839 2.29547C17.1839 2.31558 17.1839 2.33569 17.1839 2.35641C17.1534 2.36646 17.1534 2.36646 17.1223 2.37672C17.0974 2.40608 17.0725 2.43551 17.0485 2.4656C17.019 2.49943 16.9881 2.52646 16.953 2.55447C16.896 2.59421 16.896 2.59421 16.876 2.6408C16.8556 2.6408 16.8353 2.6408 16.8144 2.6408C16.8144 2.66091 16.8144 2.68102 16.8144 2.70174C16.7941 2.70174 16.7737 2.70174 16.7528 2.70174C16.7392 2.72856 16.7257 2.75537 16.7117 2.783C16.6982 2.783 16.6846 2.783 16.6707 2.783C16.6639 2.80311 16.6571 2.82322 16.6501 2.84394C16.6104 2.88838 16.6104 2.88838 16.568 2.9252C16.5545 2.9252 16.5409 2.9252 16.527 2.9252C16.5227 2.93986 16.5185 2.95453 16.5141 2.96964C16.4766 3.04552 16.4296 3.07625 16.3627 3.12834C16.3559 3.14174 16.3492 3.15515 16.3422 3.16897C16.3286 3.16897 16.3151 3.16897 16.3011 3.16897C16.3011 3.18237 16.3011 3.19578 16.3011 3.20959C16.2524 3.26292 16.2524 3.26292 16.1985 3.31116C16.1849 3.31116 16.1714 3.31116 16.1574 3.31116C16.1515 3.32415 16.1456 3.33714 16.1394 3.35052C16.1163 3.39242 16.1163 3.39242 16.0753 3.41273C16.0753 3.43955 16.0753 3.46636 16.0753 3.49399C16.0949 3.49069 16.1145 3.48739 16.1347 3.484C16.2291 3.47075 16.3225 3.47083 16.4177 3.47105C16.4372 3.47101 16.4568 3.47098 16.477 3.47094C16.5422 3.47085 16.6074 3.47091 16.6727 3.47098C16.7192 3.47095 16.7658 3.47092 16.8124 3.47089C16.938 3.47083 17.0635 3.47091 17.1891 3.47105C17.2672 3.47114 17.3453 3.4712 17.4235 3.47125C18.1194 3.47181 18.8155 3.47339 19.5114 3.47905C19.5951 3.47972 19.6787 3.48027 19.7624 3.4807C19.8602 3.48122 19.9581 3.48203 20.056 3.48308C20.0915 3.48342 20.127 3.48365 20.1625 3.48378C20.4843 3.48508 20.4843 3.48508 20.6166 3.53979C20.7017 3.57464 20.7959 3.58798 20.8857 3.60671C20.925 3.61532 20.9638 3.62562 21.0026 3.63619C21.0093 3.64959 21.0161 3.663 21.0231 3.67681C21.0666 3.69078 21.0666 3.69078 21.1168 3.69967C21.1422 3.70477 21.1422 3.70477 21.1682 3.70998C21.1813 3.71244 21.1944 3.71491 21.2079 3.71744C21.2079 3.73085 21.2079 3.74426 21.2079 3.75807C21.2386 3.76054 21.2386 3.76054 21.2699 3.76307C21.3614 3.77615 21.4307 3.81474 21.5094 3.86091C21.5307 3.87309 21.5307 3.87309 21.5525 3.88552C21.6626 3.94911 21.769 4.0172 21.8741 4.08865C21.9265 4.12476 21.9265 4.12476 21.9846 4.15625C21.9993 4.16563 22.014 4.175 22.0291 4.18466C22.0291 4.19807 22.0291 4.21148 22.0291 4.22529C22.0433 4.22959 22.0576 4.23388 22.0722 4.2383C22.1496 4.27422 22.2016 4.32437 22.2626 4.38272C22.2863 4.40491 22.3099 4.42708 22.3336 4.44922C22.3448 4.45977 22.3561 4.47031 22.3677 4.48118C22.4045 4.51512 22.4429 4.54685 22.482 4.57825C22.5429 4.63207 22.5809 4.68569 22.6245 4.75345C22.6448 4.76686 22.6651 4.78027 22.6861 4.79408C22.6861 4.80749 22.6861 4.8209 22.6861 4.83471C22.6996 4.83471 22.7132 4.83471 22.7271 4.83471C22.7536 4.86883 22.7536 4.86883 22.781 4.91343C22.7948 4.93534 22.7948 4.93534 22.8088 4.9577C22.8298 4.99722 22.8298 4.99722 22.8298 5.03785C22.8501 5.04455 22.8704 5.05126 22.8914 5.05816C22.9157 5.12037 22.9157 5.12037 22.9324 5.18005C22.946 5.18005 22.9595 5.18005 22.9735 5.18005C22.9803 5.20016 22.987 5.22027 22.994 5.24099C23.0033 5.24937 23.0126 5.25775 23.0222 5.26638C23.0849 5.33318 23.1172 5.41458 23.1172 5.50507C23.1375 5.51177 23.1579 5.51848 23.1788 5.52538C23.1991 5.5764 23.216 5.6253 23.2314 5.67774C23.2468 5.72922 23.2633 5.77941 23.2814 5.83009C23.295 5.8368 23.3085 5.8435 23.3225 5.85041C23.3357 5.90785 23.3435 5.96541 23.352 6.02371C23.3558 6.04026 23.3596 6.05681 23.3636 6.07386C23.3771 6.08056 23.3907 6.08727 23.4046 6.09417C23.4162 6.14218 23.4162 6.14218 23.4252 6.20209C23.4373 6.2839 23.4373 6.2839 23.4674 6.36016C23.4901 6.40557 23.4903 6.43369 23.488 6.48395C23.4845 6.63402 23.5002 6.78421 23.5483 6.92704C23.5502 6.96034 23.5509 6.9937 23.5509 7.02704C23.551 7.05811 23.551 7.05811 23.5511 7.0898C23.5511 7.11258 23.551 7.13535 23.551 7.15881C23.551 7.18286 23.5511 7.20692 23.5511 7.2317C23.5512 7.29835 23.5512 7.36499 23.5511 7.43164C23.5511 7.48877 23.5511 7.54589 23.5511 7.60301C23.5512 7.74023 23.5511 7.87745 23.551 8.01466C23.5509 8.13604 23.5509 8.25741 23.551 8.37879C23.5515 8.95853 23.5511 9.53824 23.5436 10.1179C23.5431 10.1536 23.5427 10.1892 23.5422 10.2248C23.542 10.2428 23.5418 10.2607 23.5415 10.2792C23.5291 11.2454 23.5261 12.2115 23.5265 13.1777C23.5265 13.231 23.5265 13.2843 23.5266 13.3375C23.5268 13.8438 23.5272 14.35 23.5277 14.8563C23.5279 15.044 23.5281 15.2317 23.5282 15.4194C23.5283 15.4474 23.5283 15.4474 23.5283 15.4759C23.5286 15.7862 23.5288 16.0965 23.5289 16.4068C23.529 16.5964 23.5292 16.7861 23.5294 16.9758C23.5296 17.1043 23.5297 17.2329 23.5297 17.3614C23.5298 17.4355 23.5298 17.5095 23.53 17.5835C23.5301 17.6635 23.5302 17.7435 23.5301 17.8235C23.5302 17.847 23.5303 17.8706 23.5304 17.8948C23.5303 17.9161 23.5303 17.9373 23.5303 17.9592C23.5303 17.9777 23.5303 17.9961 23.5303 18.0151C23.5278 18.0591 23.5278 18.0591 23.5073 18.0997C23.5042 18.1306 23.5022 18.1616 23.5008 18.1926C23.4999 18.2108 23.4991 18.229 23.4982 18.2477C23.497 18.2763 23.497 18.2763 23.4957 18.3054C23.4948 18.3246 23.494 18.3438 23.493 18.3636C23.4909 18.411 23.4888 18.4585 23.4867 18.506C23.4732 18.506 23.4596 18.506 23.4457 18.506C23.4525 18.5395 23.4592 18.573 23.4662 18.6076C23.4527 18.6076 23.4391 18.6076 23.4252 18.6076C23.4242 18.6276 23.4231 18.6477 23.4221 18.6683C23.4206 18.6944 23.419 18.7204 23.4175 18.7472C23.4153 18.7861 23.4153 18.7861 23.4131 18.8258C23.4046 18.892 23.4046 18.892 23.3636 18.9326C23.3497 18.9772 23.3497 18.9772 23.3405 19.0265C23.337 19.0431 23.3336 19.0597 23.33 19.0768C23.3276 19.0896 23.3251 19.1023 23.3225 19.1154C23.309 19.1154 23.2954 19.1154 23.2814 19.1154C23.272 19.1463 23.2626 19.1772 23.2532 19.2081C23.2476 19.2265 23.2419 19.245 23.2361 19.264C23.2226 19.3095 23.2101 19.3551 23.198 19.4011C23.1885 19.4306 23.1885 19.4306 23.1788 19.4607C23.1652 19.4675 23.1517 19.4742 23.1377 19.4811C23.1229 19.5145 23.1091 19.5483 23.0967 19.5826C23.0831 19.5826 23.0696 19.5826 23.0556 19.5826C23.0535 19.6048 23.0514 19.627 23.0492 19.6499C23.0343 19.729 23.0299 19.7362 22.9735 19.7858C22.9358 19.8448 22.9024 19.9062 22.8708 19.9686C22.8573 19.9686 22.8437 19.9686 22.8298 19.9686C22.8298 19.9887 22.8298 20.0088 22.8298 20.0295C22.8068 20.053 22.7836 20.0763 22.7594 20.0985C22.7052 20.1533 22.6611 20.2159 22.6153 20.2775C22.5995 20.2955 22.5995 20.2955 22.5834 20.3139C22.5699 20.3139 22.5563 20.3139 22.5424 20.3139C22.5288 20.3407 22.5153 20.3676 22.5013 20.3952C22.4877 20.3952 22.4742 20.3952 22.4602 20.3952C22.4535 20.4153 22.4467 20.4354 22.4397 20.4561C22.4261 20.4561 22.4126 20.4561 22.3986 20.4561C22.3851 20.4829 22.3715 20.5098 22.3576 20.5374C22.344 20.5374 22.3305 20.5374 22.3165 20.5374C22.3097 20.5575 22.303 20.5776 22.296 20.5983C22.2572 20.6318 22.2572 20.6318 22.2087 20.6669C22.1553 20.7057 22.1082 20.7435 22.0617 20.7904C22.0053 20.8452 21.9474 20.8867 21.8815 20.9297C21.8493 20.9509 21.8493 20.9509 21.8165 20.9726C21.7622 21.0046 21.7622 21.0046 21.7211 21.0046C21.7211 21.018 21.7211 21.0314 21.7211 21.0452C21.7068 21.0521 21.6924 21.059 21.6777 21.066C21.659 21.0751 21.6403 21.0841 21.6211 21.0935C21.5932 21.1069 21.5932 21.1069 21.5648 21.1206C21.5139 21.1449 21.5139 21.1449 21.4748 21.1874C21.434 21.1955 21.3929 21.2024 21.3516 21.2077C21.3516 21.2212 21.3516 21.2346 21.3516 21.2484C21.2366 21.2891 21.2366 21.2891 21.1907 21.3052C21.1202 21.3299 21.0501 21.3551 20.9804 21.3817C20.3925 21.6023 19.7399 21.5798 19.1196 21.5785C19.0375 21.5784 18.9555 21.5785 18.8734 21.5786C18.7302 21.5787 18.5871 21.5786 18.4439 21.5785C18.231 21.5783 18.0182 21.5783 17.8053 21.5784C17.447 21.5786 17.0887 21.5785 16.7305 21.5783C16.3761 21.5781 16.0217 21.578 15.6673 21.578C15.6452 21.578 15.6231 21.578 15.6004 21.578C15.5107 21.578 15.421 21.578 15.3313 21.578C14.4913 21.5781 13.6514 21.5779 12.8115 21.5776C12.0651 21.5773 11.3187 21.5771 10.5722 21.5772C10.5242 21.5772 10.4762 21.5772 10.4282 21.5772C10.3926 21.5772 10.3926 21.5772 10.3563 21.5772C10.2368 21.5772 10.1173 21.5772 9.99784 21.5772C9.97427 21.5772 9.95069 21.5772 9.92641 21.5772C9.30241 21.5772 8.67841 21.5771 8.05441 21.577C8.03223 21.577 8.01005 21.577 7.9872 21.5769C7.89801 21.5769 7.80883 21.5769 7.71964 21.5769C7.40909 21.5768 7.09853 21.5768 6.78798 21.5768C6.38825 21.5768 5.98853 21.5767 5.58881 21.5765C5.3773 21.5764 5.16579 21.5763 4.95429 21.5764C4.81327 21.5764 4.67226 21.5763 4.53124 21.5762C4.45074 21.5761 4.37024 21.5761 4.28975 21.5762C4.20331 21.5762 4.11687 21.5761 4.03044 21.576C4.00509 21.5761 3.97974 21.5761 3.95363 21.5761C3.93079 21.5761 3.90796 21.576 3.88443 21.576C3.85474 21.576 3.85474 21.576 3.82445 21.5759C3.7776 21.5734 3.7776 21.5734 3.73654 21.5531C3.67922 21.546 3.62206 21.5397 3.56459 21.534C3.34497 21.5108 3.13843 21.4834 2.92952 21.4089C2.87563 21.3897 2.87563 21.3897 2.8235 21.381C2.76133 21.3681 2.70694 21.3464 2.64843 21.322C2.62768 21.3135 2.60693 21.3049 2.58555 21.2961C2.52525 21.2687 2.52524 21.2687 2.47264 21.2374C2.42438 21.2068 2.42438 21.2068 2.37488 21.1897C2.29763 21.1579 2.22992 21.1138 2.15955 21.0694C2.13881 21.0564 2.13881 21.0564 2.11765 21.0431C2.08977 21.0257 2.06194 21.0082 2.03415 20.9906C2.00445 20.9721 1.97449 20.954 1.94435 20.9362C1.92933 20.9273 1.91431 20.9183 1.89883 20.9091C1.8851 20.9011 1.87137 20.8931 1.85723 20.8849C1.84733 20.8775 1.83742 20.8701 1.82721 20.8624C1.82721 20.849 1.82721 20.8356 1.82721 20.8218C1.81239 20.8168 1.79757 20.8117 1.7823 20.8065C1.71889 20.7787 1.67303 20.7461 1.62191 20.6999C1.62191 20.6865 1.62191 20.6731 1.62191 20.6593C1.60995 20.6538 1.59798 20.6484 1.58566 20.6428C1.53922 20.6183 1.50271 20.5915 1.4628 20.5577C1.4502 20.5472 1.4376 20.5368 1.42462 20.526C1.39607 20.4968 1.39607 20.4968 1.39607 20.4561C1.38427 20.4513 1.37247 20.4465 1.36031 20.4416C1.30379 20.4098 1.27114 20.3719 1.22927 20.3228C1.17651 20.2581 1.17651 20.2581 1.10865 20.2124C1.06495 20.1475 1.03339 20.0822 1.006 20.0092C0.992448 20.0092 0.978898 20.0092 0.964937 20.0092C0.958162 19.9824 0.951387 19.9556 0.944407 19.928C0.930857 19.928 0.917307 19.928 0.903346 19.928C0.883021 19.8676 0.883021 19.8676 0.862285 19.8061C0.848735 19.8061 0.835185 19.8061 0.821225 19.8061C0.811062 19.7558 0.811062 19.7558 0.800694 19.7045C0.787144 19.7045 0.773594 19.7045 0.759633 19.7045C0.678566 19.5483 0.601183 19.3922 0.535002 19.229C0.517865 19.1875 0.498609 19.1468 0.478624 19.1065C0.444137 19.0139 0.433258 18.9226 0.421444 18.8248C0.417871 18.8068 0.414298 18.7887 0.410617 18.7701C0.397067 18.7634 0.383517 18.7567 0.369556 18.7498C0.357286 18.6922 0.357286 18.6922 0.347743 18.6203C0.33845 18.5517 0.33008 18.4904 0.307965 18.4247C0.286689 18.2961 0.284524 18.1674 0.284909 18.0373C0.284885 18.0174 0.284861 17.9975 0.284837 17.977C0.284782 17.9104 0.284874 17.8438 0.284966 17.7773C0.284957 17.729 0.284939 17.6808 0.284913 17.6325C0.284877 17.5276 0.284904 17.4228 0.284988 17.3179C0.285112 17.162 0.285118 17.006 0.2851 16.8501C0.285073 16.5878 0.285141 16.3255 0.285264 16.0632C0.285386 15.8035 0.285465 15.5438 0.285487 15.2841C0.285489 15.2679 0.28549 15.2518 0.285492 15.2351C0.285498 15.1531 0.285504 15.0711 0.28551 14.989C0.285553 14.4081 0.285692 13.8272 0.285886 13.2463C0.286075 12.682 0.28622 12.1177 0.286307 11.5534C0.28631 11.536 0.286313 11.5186 0.286315 11.5007C0.286342 11.326 0.286369 11.1513 0.286394 10.9766C0.286446 10.6207 0.286504 10.2648 0.286565 9.90891C0.286568 9.89255 0.286571 9.87618 0.286574 9.85932C0.286763 8.76678 0.287089 7.67425 0.287435 6.58171C0.300985 6.58171 0.314535 6.58171 0.328496 6.58171C0.324261 6.56327 0.320027 6.54484 0.315664 6.52584C0.307121 6.45259 0.316979 6.44105 0.349026 6.37857C0.358226 6.33072 0.358226 6.33072 0.361858 6.28208C0.363393 6.26584 0.364928 6.24961 0.366509 6.23288C0.367515 6.22062 0.36852 6.20837 0.369556 6.19574C0.383107 6.19574 0.396657 6.19574 0.410617 6.19574C0.400455 6.16558 0.400455 6.16558 0.390087 6.1348C0.403637 6.1348 0.417187 6.1348 0.431148 6.1348C0.430724 6.10924 0.430301 6.08369 0.429864 6.05735C0.428913 5.99991 0.432853 5.96723 0.451678 5.91135C0.465228 5.91135 0.478778 5.91135 0.492739 5.91135C0.499514 5.86442 0.506289 5.8175 0.513269 5.76915C0.526819 5.76915 0.540369 5.76915 0.55433 5.76915C0.544167 5.73898 0.544167 5.73898 0.533799 5.70821C0.547349 5.7015 0.560899 5.6948 0.57486 5.68789C0.583752 5.65584 0.583752 5.65584 0.592824 5.62314C0.61249 5.5572 0.632164 5.51638 0.672059 5.46158C0.707253 5.41042 0.737558 5.35691 0.768615 5.3032C0.809987 5.23224 0.851786 5.16356 0.90078 5.09752C0.946826 5.04082 0.946826 5.04082 0.964937 4.97691C1.00471 4.93247 1.00471 4.93247 1.04706 4.89565C1.06061 4.89565 1.07416 4.89565 1.08812 4.89565C1.10167 4.86213 1.11522 4.82861 1.12918 4.79408C1.14273 4.79408 1.15628 4.79408 1.17024 4.79408C1.18379 4.76727 1.19734 4.74045 1.2113 4.71283C1.22485 4.71283 1.2384 4.71283 1.25236 4.71283C1.25702 4.70151 1.26168 4.6902 1.26648 4.67855C1.31377 4.59609 1.38393 4.53976 1.45767 4.48048C1.52103 4.43027 1.52103 4.43027 1.5693 4.36622C1.61821 4.31074 1.65741 4.28428 1.72264 4.25116C1.80113 4.20392 1.86812 4.14132 1.93708 4.08159C1.99222 4.04191 2.02712 4.02921 2.09411 4.02215C2.09411 4.00874 2.09411 3.99534 2.09411 3.98152C2.11173 3.97293 2.12936 3.96435 2.14752 3.9555C2.21529 3.92158 2.28168 3.8858 2.34817 3.84948C2.4897 3.77391 2.63135 3.72242 2.7838 3.67308C2.83711 3.65519 2.88961 3.63556 2.94227 3.61587C3.4154 3.44474 3.9223 3.47074 4.41843 3.47228C4.49413 3.47249 4.56984 3.47256 4.64555 3.47264C4.85431 3.47288 5.06306 3.47332 5.27182 3.47378C5.50768 3.4743 5.74354 3.47472 5.9794 3.47494C5.99469 3.47496 6.00999 3.47498 6.02575 3.47499C6.59736 3.47555 7.16852 3.468 7.73996 3.45336C7.73996 3.43995 7.73996 3.42655 7.73996 3.41273C7.72641 3.40603 7.71286 3.39933 7.6989 3.39242C7.69212 3.37231 7.68535 3.3522 7.67837 3.33148C7.65804 3.32477 7.63772 3.31807 7.61678 3.31116C7.61678 3.29105 7.61678 3.27094 7.61678 3.25022C7.59645 3.24352 7.57613 3.23681 7.55518 3.22991C7.51027 3.19055 7.51027 3.19055 7.47306 3.14865C7.47306 3.13524 7.47306 3.12184 7.47306 3.10802C7.45274 3.10802 7.43241 3.10802 7.41147 3.10802C7.41147 3.08791 7.41147 3.0678 7.41147 3.04708C7.38437 3.04038 7.35727 3.03367 7.32935 3.02677C7.32935 3.00666 7.32935 2.98655 7.32935 2.96583C7.3122 2.95891 7.3122 2.95891 7.29471 2.95186C7.23432 2.91795 7.19209 2.87276 7.14458 2.82363C7.11341 2.79268 7.08218 2.76179 7.05091 2.73095C7.02054 2.7009 6.99017 2.67085 6.9598 2.6408C6.94438 2.62637 6.92895 2.61195 6.91305 2.59708C6.87768 2.55955 6.87768 2.55955 6.87768 2.51892C6.85736 2.51892 6.83703 2.51892 6.81609 2.51892C6.80932 2.49881 6.80254 2.4787 6.79556 2.45798C6.75448 2.40993 6.73463 2.39725 6.67238 2.37672C6.6656 2.35661 6.65883 2.3365 6.65185 2.31578C6.61086 2.28184 6.5698 2.24798 6.52867 2.21421C6.52867 2.2008 6.52867 2.1874 6.52867 2.17358C6.51723 2.16897 6.5058 2.16436 6.49402 2.15962C6.37837 2.09467 6.29188 1.97849 6.22071 1.86887C6.22071 1.85547 6.22071 1.84206 6.22071 1.82825C6.20039 1.82825 6.18006 1.82825 6.15912 1.82825C6.10504 1.73751 6.08909 1.66432 6.08333 1.56123C6.08124 1.54879 6.07915 1.53635 6.077 1.52354C6.06345 1.51683 6.0499 1.51013 6.03594 1.50322C5.98749 1.45529 6.0116 1.33528 6.01156 1.27088C6.01131 1.25097 6.01105 1.23105 6.0108 1.21053C6.01076 1.19151 6.01072 1.17249 6.01068 1.15289C6.01059 1.13536 6.01051 1.11783 6.01042 1.09977C6.01541 1.05632 6.01541 1.05632 6.05647 1.01569C6.08376 0.943754 6.10777 0.870992 6.13209 0.798027C6.15693 0.736705 6.17269 0.712574 6.22071 0.67035C6.22749 0.65024 6.23426 0.630129 6.24124 0.609409C6.28188 0.57506 6.32294 0.541188 6.36442 0.507839C6.3712 0.494432 6.37797 0.481025 6.38495 0.467211C6.40528 0.467211 6.4256 0.467211 6.44654 0.467211C6.44654 0.453804 6.44654 0.440397 6.44654 0.426583C6.47336 0.410712 6.50035 0.39511 6.52738 0.379607C6.54989 0.366527 6.54989 0.366527 6.57285 0.353183C6.72468 0.280029 6.85929 0.253794 7.02781 0.256454ZM4.16767 5.70821C4.13394 5.71484 4.10016 5.72124 4.06631 5.72725C3.82593 5.77489 3.59082 5.87679 3.38752 6.01292C3.38752 6.02632 3.38752 6.03973 3.38752 6.05354C3.37244 6.05894 3.35735 6.06433 3.34181 6.06989C3.18651 6.13612 3.05525 6.26496 2.95638 6.39888C2.94961 6.41899 2.94283 6.4391 2.93585 6.45982C2.90536 6.46988 2.90536 6.46988 2.87426 6.48014C2.87426 6.50025 2.87426 6.52036 2.87426 6.54108C2.85394 6.54108 2.83361 6.54108 2.81267 6.54108C2.79912 6.56329 2.78557 6.58549 2.77161 6.60837C2.76399 6.62086 2.75637 6.63335 2.74851 6.64622C2.72611 6.68559 2.72611 6.68559 2.73055 6.74422C2.70006 6.75427 2.70006 6.75427 2.66896 6.76453C2.63693 6.81765 2.63693 6.81765 2.60737 6.88642C2.5982 6.90523 2.5982 6.90523 2.58884 6.92443C2.54224 7.02239 2.50438 7.12308 2.46879 7.22541C2.46 7.25062 2.45121 7.27584 2.44216 7.30182C2.41985 7.38408 2.40349 7.45804 2.44312 7.53646C2.42957 7.53646 2.41602 7.53646 2.40206 7.53646C2.40206 10.2983 2.40206 13.0602 2.40206 15.9058C2.39529 15.9058 2.38851 15.9058 2.38153 15.9058C2.38153 16.1874 2.38153 16.4689 2.38153 16.759C2.38831 16.759 2.39508 16.759 2.40206 16.759C2.40884 16.8663 2.41561 16.9735 2.42259 17.084C2.40904 17.084 2.39549 17.084 2.38153 17.084C2.38153 17.1309 2.38153 17.1779 2.38153 17.2262C2.39508 17.2262 2.40863 17.2262 2.42259 17.2262C2.42087 17.2402 2.41915 17.2542 2.41738 17.2687C2.38994 17.5192 2.42122 17.8031 2.56631 18.0185C2.57692 18.0478 2.58671 18.0775 2.59582 18.1073C2.61921 18.179 2.64367 18.2417 2.68949 18.3029C2.70304 18.3029 2.71659 18.3029 2.73055 18.3029C2.73224 18.3175 2.73394 18.3322 2.73568 18.3473C2.75431 18.4164 2.78393 18.4543 2.8332 18.506C2.84675 18.506 2.8603 18.506 2.87426 18.506C2.87779 18.5237 2.87779 18.5237 2.8814 18.5419C2.92503 18.6897 3.05777 18.7874 3.17668 18.8765C3.22328 18.9123 3.22328 18.9123 3.25207 18.9416C3.3018 18.9895 3.35881 19.027 3.41575 19.0659C3.42734 19.074 3.43893 19.0821 3.45088 19.0905C3.51676 19.1356 3.57939 19.1693 3.65442 19.1967C3.68705 19.2133 3.71956 19.2303 3.75193 19.2475C3.83686 19.2903 3.91562 19.3153 4.00929 19.3316C4.04449 19.3389 4.04449 19.3389 4.06502 19.3592C4.1203 19.364 4.17517 19.3677 4.23055 19.3706C4.24612 19.3715 4.2617 19.3724 4.27774 19.3733C4.31633 19.3754 4.35492 19.3775 4.39351 19.3795C4.39351 19.3862 4.39351 19.3929 4.39351 19.3998C6.11436 19.3998 7.83522 19.3998 9.60822 19.3998C9.60822 19.3931 9.60822 19.3864 9.60822 19.3795C9.6963 19.3795 9.78437 19.3795 9.87512 19.3795C9.87512 19.3862 9.87512 19.3929 9.87512 19.3998C10.3358 19.3998 10.7965 19.3998 11.2712 19.3998C11.2712 19.3864 11.2712 19.373 11.2712 19.3592C11.3051 19.3592 11.3389 19.3592 11.3738 19.3592C11.3738 19.3726 11.3738 19.386 11.3738 19.3998C11.4077 19.3998 11.4416 19.3998 11.4765 19.3998C11.4765 19.3864 11.4765 19.373 11.4765 19.3592C11.5036 19.3592 11.5307 19.3592 11.5586 19.3592C11.5586 19.3726 11.5586 19.386 11.5586 19.3998C11.8296 19.3998 12.1006 19.3998 12.3798 19.3998C12.3798 19.3864 12.3798 19.373 12.3798 19.3592C12.3934 19.3592 12.4069 19.3592 12.4209 19.3592C12.4209 19.3726 12.4209 19.386 12.4209 19.3998C12.6241 19.3998 12.8274 19.3998 13.0368 19.3998C13.0368 19.3864 13.0368 19.373 13.0368 19.3592C13.0639 19.3592 13.091 19.3592 13.1189 19.3592C13.1189 19.3726 13.1189 19.386 13.1189 19.3998C13.1327 19.3998 13.1466 19.3998 13.1608 19.3998C14.2281 19.3998 15.2954 19.3998 16.3627 19.3998C16.3627 19.3864 16.3627 19.373 16.3627 19.3592C16.505 19.3659 16.6473 19.3726 16.7938 19.3795C16.7938 19.3862 16.7938 19.3929 16.7938 19.3998C17.1274 19.4003 17.4609 19.4006 17.7945 19.4009C17.9493 19.401 18.1042 19.4011 18.2591 19.4013C18.394 19.4015 18.529 19.4017 18.6639 19.4017C18.7354 19.4017 18.8069 19.4018 18.8784 19.402C18.9581 19.4021 19.0378 19.4021 19.1176 19.4021C19.1413 19.4022 19.1651 19.4023 19.1896 19.4023C19.2113 19.4023 19.233 19.4023 19.2553 19.4022C19.2836 19.4023 19.2836 19.4023 19.3125 19.4023C19.3634 19.4017 19.3634 19.4017 19.4217 19.3795C19.4926 19.3739 19.5634 19.3704 19.6344 19.3669C19.8467 19.345 20.0889 19.2631 20.2647 19.142C20.3045 19.1154 20.3045 19.1154 20.3718 19.0792C20.4544 19.033 20.5235 18.9754 20.5945 18.9135C20.6067 18.9031 20.6189 18.8927 20.6315 18.882C20.7033 18.8203 20.7738 18.7581 20.8383 18.6888C20.8383 18.6754 20.8383 18.662 20.8383 18.6482C20.8587 18.6415 20.879 18.6348 20.8999 18.6279C20.968 18.5578 20.968 18.5578 20.982 18.4654C21.0024 18.4587 21.0227 18.452 21.0436 18.445C21.0504 18.4115 21.0572 18.378 21.0642 18.3435C21.0777 18.3435 21.0913 18.3435 21.1052 18.3435C21.1173 18.319 21.1173 18.319 21.1296 18.294C21.1499 18.2544 21.1707 18.2151 21.1938 18.1771C21.248 18.0871 21.2835 18.0253 21.2695 17.9169C21.283 17.9169 21.2966 17.9169 21.3105 17.9169C21.4309 17.5846 21.4398 17.2506 21.4389 16.9015C21.439 16.8616 21.439 16.8217 21.4391 16.7818C21.4393 16.6732 21.4392 16.5645 21.4391 16.4558C21.439 16.3382 21.4391 16.2206 21.4392 16.1031C21.4394 15.8731 21.4394 15.6432 21.4393 15.4132C21.4392 15.2263 21.4392 15.0394 21.4392 14.8524C21.4392 14.8258 21.4392 14.7991 21.4392 14.7717C21.4392 14.7311 21.4392 14.6905 21.4393 14.65C21.4394 14.1437 21.4393 13.6374 21.439 13.1312C21.4389 12.6819 21.4389 12.2327 21.4391 11.7834C21.4393 11.2779 21.4394 10.7725 21.4392 10.267C21.4392 10.2131 21.4392 10.1591 21.4392 10.1052C21.4392 10.0787 21.4392 10.0522 21.4392 10.0248C21.4392 9.83816 21.4392 9.6515 21.4393 9.46484C21.4394 9.23731 21.4394 9.00978 21.4392 8.78225C21.4391 8.66623 21.439 8.55022 21.4392 8.43421C21.4393 8.32789 21.4392 8.22157 21.439 8.11526C21.439 8.07692 21.439 8.03858 21.4391 8.00024C21.4398 7.70664 21.4186 7.43346 21.3311 7.1505C21.3175 7.1505 21.304 7.1505 21.29 7.1505C21.2853 7.1095 21.2806 7.0685 21.276 7.0275C21.2713 6.98648 21.2713 6.98648 21.2489 6.94736C21.2354 6.94736 21.2218 6.94736 21.2079 6.94736C21.2047 6.91971 21.2047 6.91971 21.2015 6.8915C21.1866 6.82184 21.1703 6.79812 21.1258 6.74422C21.1118 6.71939 21.0981 6.6944 21.0847 6.66931C21.0506 6.597 21.0506 6.597 20.982 6.58171C20.9753 6.54819 20.9685 6.51467 20.9615 6.48014C20.948 6.48014 20.9344 6.48014 20.9205 6.48014C20.9158 6.46883 20.9111 6.45751 20.9063 6.44586C20.8717 6.3855 20.8274 6.34515 20.7767 6.29731C20.759 6.27846 20.7412 6.2596 20.7228 6.24018C20.6776 6.18886 20.6776 6.18886 20.6125 6.19574C20.6125 6.17563 20.6125 6.15552 20.6125 6.1348C20.5501 6.07959 20.4776 6.03717 20.4072 5.9926C20.3879 5.9803 20.3687 5.96799 20.3488 5.95531C20.1975 5.86313 20.0427 5.80139 19.8734 5.74884C19.8524 5.74205 19.8313 5.73527 19.8096 5.72828C19.6079 5.67284 19.4023 5.66163 19.1941 5.66247C19.1683 5.66241 19.1425 5.66235 19.1159 5.66229C19.0448 5.66213 18.9737 5.66222 18.9025 5.66236C18.8249 5.66246 18.7474 5.66233 18.6698 5.66223C18.534 5.66208 18.3982 5.66209 18.2624 5.66219C18.0605 5.66234 17.8586 5.66227 17.6567 5.66214C17.296 5.66193 16.9354 5.66195 16.5747 5.66206C16.2592 5.66217 15.9437 5.66219 15.6281 5.66214C15.5967 5.66214 15.5967 5.66214 15.5647 5.66213C15.4797 5.66212 15.3947 5.66211 15.3098 5.6621C14.5128 5.66197 13.7158 5.66208 12.9188 5.6623C12.2106 5.66249 11.5024 5.66248 10.7943 5.66228C9.99858 5.66207 9.2029 5.66198 8.40722 5.66211C8.32243 5.66212 8.23764 5.66213 8.15284 5.66214C8.13197 5.66215 8.11109 5.66215 8.08958 5.66215C7.77415 5.6622 7.45873 5.66215 7.1433 5.66204C6.78477 5.66193 6.42624 5.66196 6.0677 5.66218C5.86699 5.6623 5.66627 5.6623 5.46556 5.66215C5.33157 5.66206 5.19758 5.66211 5.06359 5.66229C4.9872 5.66239 4.91081 5.66242 4.83442 5.66228C4.75217 5.66212 4.66993 5.66228 4.58769 5.66247C4.56392 5.66237 4.54015 5.66228 4.51566 5.66218C4.39203 5.66275 4.28615 5.673 4.16767 5.70821ZM2.38153 8.20682C2.38153 8.24034 2.38153 8.27386 2.38153 8.30839C2.38831 8.30839 2.39508 8.30839 2.40206 8.30839C2.40206 8.27487 2.40206 8.24136 2.40206 8.20682C2.39529 8.20682 2.38851 8.20682 2.38153 8.20682ZM2.38153 8.53185C2.40206 8.6131 2.40206 8.6131 2.40206 8.6131L2.38153 8.53185ZM2.38153 9.20221C2.40206 9.26315 2.40206 9.26315 2.40206 9.26315L2.38153 9.20221ZM2.38153 9.30378C2.38153 9.344 2.38153 9.38422 2.38153 9.42566C2.38831 9.42566 2.39508 9.42566 2.40206 9.42566C2.40206 9.38544 2.40206 9.34522 2.40206 9.30378C2.39529 9.30378 2.38851 9.30378 2.38153 9.30378ZM2.38153 10.2788C2.40206 10.3601 2.40206 10.3601 2.40206 10.3601L2.38153 10.2788ZM2.38153 10.9086C2.40206 10.9898 2.40206 10.9898 2.40206 10.9898L2.38153 10.9086ZM2.38153 11.4571C2.40206 11.4977 2.40206 11.4977 2.40206 11.4977L2.38153 11.4571ZM2.38153 13.8338C2.40206 13.8744 2.40206 13.8744 2.40206 13.8744L2.38153 13.8338ZM2.38153 14.3823C2.40206 14.4229 2.40206 14.4229 2.40206 14.4229L2.38153 14.3823ZM2.38153 14.5651C2.40206 14.626 2.40206 14.626 2.40206 14.626L2.38153 14.5651ZM2.38153 14.6667C2.38153 14.7404 2.38153 14.8141 2.38153 14.8901C2.38831 14.8901 2.39508 14.8901 2.40206 14.8901C2.40206 14.8164 2.40206 14.7426 2.40206 14.6667C2.39529 14.6667 2.38851 14.6667 2.38153 14.6667ZM2.38153 14.9307C2.38153 15.0045 2.38153 15.0782 2.38153 15.1542C2.38831 15.1542 2.39508 15.1542 2.40206 15.1542C2.40206 15.0805 2.40206 15.0067 2.40206 14.9307C2.39529 14.9307 2.38851 14.9307 2.38153 14.9307ZM2.38153 16.9418C2.40206 17.0028 2.40206 17.0028 2.40206 17.0028L2.38153 16.9418ZM2.38153 17.2668C2.40206 17.3075 2.40206 17.3075 2.40206 17.3075L2.38153 17.2668Z" fill="black"/>
<path d="M15.1514 10.2382C15.1514 10.2516 15.1514 10.265 15.1514 10.2789C15.1908 10.2826 15.1908 10.2826 15.231 10.2865C15.3105 10.2941 15.3105 10.2941 15.3567 10.3398C15.3976 10.3539 15.4387 10.3673 15.4799 10.3804C15.594 10.4273 15.7054 10.479 15.8165 10.5324C15.8809 10.5627 15.9426 10.5878 16.0118 10.6057C16.0327 10.6118 16.0537 10.6179 16.0753 10.6242C16.0854 10.6443 16.0854 10.6443 16.0958 10.6648C16.1903 10.7028 16.2862 10.7352 16.3832 10.7664C16.3832 10.7798 16.3832 10.7932 16.3832 10.807C16.4307 10.8137 16.4781 10.8204 16.5269 10.8273C16.5269 10.8407 16.5269 10.8541 16.5269 10.868C16.56 10.8711 16.56 10.8711 16.5937 10.8743C16.6714 10.8884 16.6938 10.9021 16.7528 10.9492C16.7937 10.9633 16.8347 10.9768 16.876 10.9898C16.9172 11.0098 16.9582 11.0301 16.9991 11.0508C17.0334 11.0651 17.0677 11.0795 17.102 11.0938C17.2089 11.1408 17.3128 11.1948 17.4162 11.2488C17.4695 11.2734 17.516 11.2861 17.574 11.2945C17.574 11.308 17.574 11.3214 17.574 11.3352C17.5854 11.3386 17.5969 11.3421 17.6086 11.3456C17.6874 11.3704 17.7625 11.3961 17.8358 11.4342C17.9492 11.4931 18.07 11.5348 18.1899 11.5789C18.1899 11.5923 18.1899 11.6058 18.1899 11.6196C18.2712 11.6397 18.2712 11.6397 18.3541 11.6602C18.3541 11.6736 18.3541 11.687 18.3541 11.7008C18.3681 11.7029 18.3821 11.705 18.3965 11.7072C18.5251 11.7369 18.6305 11.7964 18.7378 11.871C18.7492 11.8785 18.7606 11.8861 18.7723 11.894C18.8446 11.9436 18.8997 11.9947 18.9495 12.0665C18.9495 12.0799 18.9495 12.0933 18.9495 12.1071C18.9631 12.1071 18.9766 12.1071 18.9906 12.1071C19.0293 12.1943 19.0639 12.2804 19.0932 12.3712C19.1009 12.3938 19.1085 12.4164 19.1163 12.4397C19.1252 12.4661 19.1252 12.4661 19.1343 12.4931C19.1411 12.4931 19.1478 12.4931 19.1548 12.4931C19.1559 12.5396 19.1567 12.5862 19.1574 12.6327C19.1579 12.6587 19.1583 12.6846 19.1588 12.7113C19.1548 12.7775 19.1548 12.7775 19.1138 12.8181C19.0982 12.8558 19.0982 12.8558 19.0857 12.8992C19.0781 12.9232 19.0781 12.9232 19.0704 12.9477C19.06 12.9813 19.0497 13.0149 19.0396 13.0486C19.0108 13.1389 18.9884 13.2064 18.9085 13.265C18.8949 13.265 18.8814 13.265 18.8674 13.265C18.8606 13.2851 18.8539 13.3052 18.8469 13.3259C18.8333 13.3259 18.8198 13.3259 18.8058 13.3259C18.799 13.3461 18.7923 13.3662 18.7853 13.3869C18.6675 13.4861 18.5319 13.5494 18.3747 13.5494C18.3679 13.5628 18.3611 13.5762 18.3541 13.59C18.112 13.5677 17.8933 13.4698 17.6766 13.3666C17.6468 13.3533 17.6168 13.3402 17.5868 13.3272C17.5296 13.3023 17.4729 13.2766 17.4164 13.2502C17.4028 13.2438 17.3893 13.2375 17.3753 13.231C17.3485 13.2184 17.3216 13.2058 17.2948 13.1931C17.2383 13.1667 17.1827 13.1427 17.1231 13.1235C17.0439 13.0968 16.972 13.0604 16.8978 13.0225C16.796 12.9708 16.694 12.9231 16.5885 12.879C16.524 12.8499 16.4598 12.8198 16.3957 12.7898C16.3101 12.75 16.2239 12.7124 16.1369 12.6759C16.0178 12.6243 15.8994 12.571 15.7811 12.5177C15.7192 12.4899 15.6569 12.4628 15.5947 12.4357C15.5514 12.4163 15.5086 12.3963 15.4659 12.3759C15.4523 12.3695 15.4388 12.3631 15.4249 12.3565C15.398 12.3437 15.3712 12.3308 15.3445 12.3178C15.266 12.2807 15.1957 12.2629 15.1103 12.2493C15.1036 12.2359 15.0968 12.2225 15.0898 12.2087C15.0405 12.1846 14.9916 12.1625 14.941 12.1414C14.9188 12.1319 14.9188 12.1319 14.8961 12.1223C14.8049 12.0837 14.713 12.0477 14.6202 12.0132C14.5055 11.9702 14.3972 11.9204 14.2891 11.8633C14.2691 11.8528 14.2491 11.8422 14.2284 11.8313C14.151 11.7899 14.075 11.7491 14.0017 11.7008C14.0017 11.6874 14.0017 11.674 14.0017 11.6602C13.9814 11.6602 13.9611 11.6602 13.9401 11.6602C13.9333 11.6401 13.9266 11.62 13.9196 11.5993C13.8993 11.5926 13.8789 11.5858 13.858 11.5789C13.8555 11.5626 13.8529 11.5463 13.8503 11.5294C13.8461 11.5122 13.8418 11.4951 13.8375 11.4774C13.8239 11.4707 13.8104 11.464 13.7964 11.4571C13.7775 11.3792 13.7703 11.2991 13.7605 11.2196C13.7574 11.1975 13.7543 11.1754 13.7511 11.1525C13.7367 11.0393 13.7271 10.9544 13.7759 10.8476C13.7836 10.8004 13.7906 10.753 13.7964 10.7054C13.8167 10.6987 13.8371 10.692 13.858 10.6851C13.8593 10.6594 13.8593 10.6594 13.8606 10.6331C13.9042 10.4636 14.0602 10.368 14.2016 10.2765C14.2857 10.2284 14.3579 10.2079 14.4534 10.1976C14.4697 10.1941 14.4861 10.1906 14.5029 10.187C14.6835 10.1538 14.9836 10.1552 15.1514 10.2382ZM19.1138 12.5337C19.1343 12.5743 19.1343 12.5743 19.1343 12.5743L19.1138 12.5337Z" fill="black"/>
<path d="M9.69032 10.2992C9.69032 10.3126 9.69032 10.326 9.69032 10.3398C9.70194 10.3411 9.71355 10.3423 9.72552 10.3436C9.84022 10.3841 9.92906 10.5293 9.98288 10.6331C10.0027 10.6844 10.0188 10.7314 10.0188 10.7867C10.0324 10.7934 10.0459 10.8001 10.0599 10.807C10.0599 10.9947 10.0599 11.1824 10.0599 11.3758C10.0463 11.3825 10.0328 11.3892 10.0188 11.3961C10.0129 11.4142 10.0069 11.4322 10.0008 11.4507C9.95917 11.5721 9.89501 11.6448 9.79297 11.7212C9.7862 11.7346 9.77942 11.748 9.77244 11.7618C9.73991 11.7765 9.70725 11.7909 9.67412 11.8042C9.60251 11.8334 9.53242 11.8658 9.462 11.8976C9.42416 11.9147 9.38626 11.9317 9.34828 11.9484C9.26586 11.9849 9.1841 12.0219 9.104 12.0632C9.09142 12.0696 9.07885 12.076 9.06589 12.0827C9.03004 12.1011 8.99432 12.1198 8.9586 12.1386C8.88651 12.1694 8.82381 12.181 8.74592 12.1884C8.74592 12.2018 8.74592 12.2152 8.74592 12.229C8.72306 12.2349 8.70019 12.2407 8.67663 12.2468C8.60215 12.2634 8.60215 12.2634 8.56115 12.3103C8.51714 12.3292 8.47257 12.3468 8.4277 12.3636C8.40378 12.3727 8.37985 12.3817 8.3552 12.3911C8.29425 12.4118 8.29425 12.4118 8.25319 12.4118C8.24642 12.4253 8.23964 12.4387 8.23266 12.4525C8.19892 12.4671 8.1647 12.4808 8.13001 12.4931C8.13001 12.4998 8.13001 12.5065 8.13001 12.5134C8.10545 12.521 8.08089 12.5285 8.05559 12.5363C7.84112 12.6073 7.63799 12.7036 7.43719 12.8057C7.36799 12.8396 7.29776 12.8695 7.22667 12.8994C7.17826 12.9216 7.12993 12.9441 7.08168 12.9667C6.98023 13.0139 6.87828 13.0593 6.77501 13.1025C6.66468 13.1488 6.55593 13.1977 6.44753 13.2482C6.33392 13.3011 6.21967 13.3524 6.1052 13.4034C6.08768 13.4112 6.07016 13.4191 6.0521 13.4271C6.00572 13.4478 5.95924 13.4681 5.91273 13.4885C5.89555 13.4963 5.87838 13.504 5.86068 13.512C5.78506 13.5375 5.70784 13.5493 5.62915 13.5621C5.60488 13.5662 5.60488 13.5662 5.58011 13.5704C5.54045 13.577 5.50076 13.5836 5.46106 13.5901C5.46106 13.5766 5.46106 13.5632 5.46106 13.5494C5.44862 13.5479 5.43619 13.5464 5.42337 13.5448C5.22961 13.5147 5.0791 13.4301 4.9478 13.2853C4.93044 13.2694 4.91308 13.2535 4.89519 13.2371C4.78704 13.1218 4.74842 13.0106 4.72197 12.8587C4.71519 12.8587 4.70842 12.8587 4.70144 12.8587C4.70025 12.7919 4.69952 12.725 4.69887 12.6581C4.69853 12.6391 4.69818 12.6201 4.69783 12.6005C4.69763 12.5732 4.69763 12.5732 4.69743 12.5453C4.69721 12.5285 4.697 12.5117 4.69678 12.4944C4.70144 12.4525 4.70144 12.4525 4.7425 12.4118C4.75868 12.3714 4.75868 12.3714 4.77201 12.3255C4.81027 12.2076 4.84961 12.1074 4.9478 12.0259C4.96135 12.0259 4.9749 12.0259 4.98886 12.0259C4.99564 12.0058 5.00241 11.9857 5.00939 11.9649C5.10782 11.8757 5.2203 11.8153 5.34189 11.7626C5.35793 11.7556 5.37397 11.7487 5.39049 11.7415C5.40534 11.7352 5.42018 11.7289 5.43548 11.7224C5.48295 11.7013 5.48295 11.7013 5.52995 11.6711C5.61353 11.6231 5.70366 11.5947 5.79436 11.5624C5.85357 11.5445 5.85357 11.5445 5.87167 11.4977C5.91957 11.4909 5.96748 11.4842 6.01538 11.4774C6.02554 11.4573 6.02554 11.4573 6.03591 11.4368C6.08021 11.4176 6.12526 11.4 6.17064 11.3834C6.19523 11.3744 6.21982 11.3653 6.24515 11.356C6.26417 11.3491 6.2832 11.3423 6.30281 11.3352C6.30281 11.3218 6.30281 11.3084 6.30281 11.2946C6.32186 11.29 6.34092 11.2854 6.36055 11.2806C6.48837 11.2445 6.61288 11.1883 6.72617 11.1198C6.77501 11.0914 6.77501 11.0914 6.84558 11.0724C6.92017 11.0544 6.92017 11.0544 6.98031 11.0089C7.05045 10.9641 7.1032 10.9558 7.18561 10.9492C7.19239 10.9291 7.19916 10.909 7.20614 10.8883C7.2399 10.8781 7.27378 10.8681 7.30807 10.8598C7.36818 10.8423 7.42098 10.814 7.47641 10.7855C7.53537 10.7556 7.59628 10.7329 7.65877 10.7113C7.6737 10.706 7.68863 10.7007 7.70401 10.6953C7.71808 10.6905 7.73216 10.6857 7.74667 10.6807C7.7851 10.6672 7.7851 10.6672 7.80152 10.6242C7.83817 10.6098 7.83817 10.6098 7.88493 10.5963C7.9981 10.561 8.10069 10.5136 8.20058 10.4503C8.26117 10.4166 8.32134 10.3975 8.38736 10.3767C8.49855 10.3403 8.60706 10.2961 8.71256 10.2459C9.01824 10.1311 9.40514 10.1364 9.69032 10.2992Z" fill="black"/>
<path d="M9.81352 14.2604C9.87768 14.2998 9.87768 14.2998 9.91617 14.3417C9.91617 14.3551 9.91617 14.3685 9.91617 14.3823C9.92972 14.3823 9.94327 14.3823 9.95723 14.3823C10.0006 14.4579 10.0061 14.5219 10.0118 14.6073C10.0141 14.6202 10.0164 14.6331 10.0188 14.6464C10.0324 14.6531 10.0459 14.6598 10.0599 14.6667C10.0736 14.7006 10.0873 14.7344 10.1009 14.7683C10.1145 14.775 10.128 14.7817 10.142 14.7886C10.1541 14.8156 10.1541 14.8156 10.1664 14.8432C10.2236 14.9467 10.2996 15.0131 10.4102 15.0577C10.4301 15.0628 10.45 15.0678 10.4705 15.073C10.49 15.0805 10.5094 15.0881 10.5295 15.0958C10.6794 15.1374 10.8156 15.1166 10.9534 15.0467C11.0515 14.9914 11.123 14.9421 11.1891 14.8495C11.2026 14.8495 11.2162 14.8495 11.2301 14.8495C11.2403 14.8194 11.2403 14.8194 11.2506 14.7886C11.2672 14.7727 11.2837 14.7567 11.3007 14.7403C11.3529 14.6874 11.3691 14.6531 11.3944 14.5854C11.4145 14.5647 11.435 14.5444 11.4559 14.5245C11.4627 14.5044 11.4695 14.4843 11.4765 14.4636C11.49 14.4636 11.5036 14.4636 11.5175 14.4636C11.5243 14.43 11.5311 14.3965 11.5381 14.362C11.5516 14.362 11.5652 14.362 11.5791 14.362C11.5859 14.3419 11.5927 14.3218 11.5997 14.301C11.6132 14.301 11.6268 14.301 11.6407 14.301C11.6407 14.2876 11.6407 14.2742 11.6407 14.2604C11.7285 14.2315 11.8085 14.2293 11.8978 14.2549C11.9585 14.2857 11.9806 14.3153 12.0167 14.3721C12.0272 14.3883 12.0377 14.4044 12.0485 14.421C12.0719 14.4636 12.0719 14.4636 12.0719 14.5042C12.0854 14.5042 12.099 14.5042 12.1129 14.5042C12.1197 14.5511 12.1265 14.598 12.1335 14.6464C12.147 14.6464 12.1606 14.6464 12.1745 14.6464C12.1834 14.6709 12.1834 14.6709 12.1925 14.6959C12.2101 14.7506 12.2101 14.7506 12.2566 14.7683C12.2634 14.7884 12.2702 14.8085 12.2772 14.8292C12.34 14.8982 12.4018 14.9452 12.4825 14.9917C12.4892 15.0051 12.496 15.0185 12.503 15.0323C12.6432 15.1017 12.779 15.1111 12.9341 15.0933C12.9946 15.0731 13.0447 15.0458 13.0984 15.012C13.112 15.0059 13.1255 14.9997 13.1395 14.9934C13.3494 14.8808 13.4519 14.5907 13.5295 14.3823C13.5431 14.3823 13.5566 14.3823 13.5706 14.3823C13.5706 14.3622 13.5706 14.3421 13.5706 14.3214C13.6755 14.2555 13.7537 14.2277 13.8777 14.2496C13.9532 14.2691 14.0005 14.2904 14.0459 14.3551C14.1251 14.4954 14.1405 14.6235 14.0992 14.7784C14.0877 14.8158 14.0757 14.853 14.0633 14.8901C14.0574 14.9082 14.0515 14.9263 14.0454 14.945C14.0312 14.9878 14.0167 15.0304 14.0017 15.073C13.9882 15.073 13.9746 15.073 13.9607 15.073C13.9539 15.0998 13.9471 15.1266 13.9401 15.1542C13.9266 15.1542 13.913 15.1542 13.8991 15.1542C13.8944 15.1689 13.8897 15.1836 13.8849 15.1987C13.8525 15.2675 13.8108 15.3051 13.7554 15.3574C13.7325 15.3875 13.7325 15.3875 13.7092 15.4183C13.6537 15.4865 13.585 15.5204 13.5067 15.5589C13.4646 15.578 13.4646 15.578 13.4474 15.6214C13.0857 15.7748 12.7105 15.8259 12.3366 15.6783C12.3238 15.6729 12.3109 15.6676 12.2977 15.6621C12.2838 15.6563 12.2699 15.6506 12.2556 15.6446C12.2216 15.6303 12.1878 15.6158 12.154 15.6011C12.154 15.5877 12.154 15.5743 12.154 15.5605C12.093 15.5404 12.093 15.5404 12.0308 15.5199C12.0308 15.5065 12.0308 15.4931 12.0308 15.4793C11.9829 15.4547 11.9385 15.4353 11.8871 15.4183C11.8658 15.3849 11.8453 15.351 11.8255 15.3167C11.793 15.2812 11.793 15.2812 11.7639 15.2558C11.752 15.2617 11.7402 15.2675 11.728 15.2736C11.6818 15.2964 11.6818 15.2964 11.6382 15.3142C11.5969 15.3337 11.5969 15.3337 11.5837 15.3735C11.483 15.5533 11.2113 15.6662 11.0218 15.7216C10.7688 15.7864 10.5559 15.8073 10.3024 15.7383C10.287 15.7341 10.2717 15.7299 10.2559 15.7257C10.1494 15.6949 10.0552 15.6525 9.95723 15.6011C9.95723 15.5877 9.95723 15.5743 9.95723 15.5605C9.91658 15.5471 9.87593 15.5337 9.83405 15.5199C9.83405 15.5065 9.83405 15.4931 9.83405 15.4793C9.8169 15.4725 9.8169 15.4725 9.79941 15.4656C9.73696 15.4301 9.69728 15.385 9.64928 15.332C9.63192 15.313 9.61456 15.2941 9.59667 15.2745C9.53253 15.1985 9.47581 15.1268 9.44397 15.0323C9.43042 15.0189 9.41687 15.0055 9.40291 14.9917C9.39033 14.9446 9.38209 14.8974 9.3734 14.8494C9.36959 14.8361 9.36578 14.8227 9.36185 14.8089C9.3483 14.8022 9.33475 14.7955 9.32079 14.7886C9.32024 14.742 9.31984 14.6955 9.31951 14.6489C9.31927 14.623 9.31903 14.5971 9.31879 14.5704C9.32079 14.5042 9.32079 14.5042 9.34132 14.4636C9.35487 14.4636 9.36842 14.4636 9.38238 14.4636C9.38916 14.4367 9.39593 14.4099 9.40291 14.3823C9.41646 14.3823 9.43001 14.3823 9.44397 14.3823C9.45075 14.3622 9.45752 14.3421 9.4645 14.3214C9.57993 14.2339 9.67303 14.2231 9.81352 14.2604Z" fill="black"/>
<path d="M17.4919 19.3592C17.6545 19.3592 17.8171 19.3592 17.9846 19.3592C17.9846 19.3659 17.9846 19.3726 17.9846 19.3795C17.822 19.3795 17.6594 19.3795 17.4919 19.3795C17.4919 19.3728 17.4919 19.3661 17.4919 19.3592Z" fill="black"/>
<path d="M18.3131 19.3592C18.4147 19.3592 18.5163 19.3592 18.621 19.3592C18.621 19.3659 18.621 19.3726 18.621 19.3795C18.5194 19.3795 18.4178 19.3795 18.3131 19.3795C18.3131 19.3728 18.3131 19.3661 18.3131 19.3592Z" fill="black"/>
<path d="M6.73395 19.3592C6.80847 19.3592 6.883 19.3592 6.95978 19.3592C6.95978 19.3659 6.95978 19.3726 6.95978 19.3795C6.88526 19.3795 6.81073 19.3795 6.73395 19.3795C6.73395 19.3728 6.73395 19.3661 6.73395 19.3592Z" fill="black"/>
<path d="M15.0282 19.3592C15.0757 19.3592 15.1231 19.3592 15.1719 19.3592C15.1719 19.3659 15.1719 19.3726 15.1719 19.3795C15.1245 19.3795 15.0771 19.3795 15.0282 19.3795C15.0282 19.3728 15.0282 19.3661 15.0282 19.3592Z" fill="black"/>
<path d="M6.44653 19.3592C6.48718 19.3592 6.52783 19.3592 6.56972 19.3592C6.56972 19.3659 6.56972 19.3726 6.56972 19.3795C6.52907 19.3795 6.48842 19.3795 6.44653 19.3795C6.44653 19.3728 6.44653 19.3661 6.44653 19.3592Z" fill="black"/>
<path d="M14.6997 19.3592C14.7336 19.3592 14.7675 19.3592 14.8024 19.3592C14.8024 19.3659 14.8024 19.3726 14.8024 19.3795C14.7685 19.3795 14.7346 19.3795 14.6997 19.3795C14.6997 19.3728 14.6997 19.3661 14.6997 19.3592Z" fill="black"/>
<path d="M18.7032 19.3592C18.7853 19.3795 18.7853 19.3795 18.7853 19.3795L18.7032 19.3592Z" fill="black"/>
<path d="M16.0137 19.3592C16.0958 19.3795 16.0958 19.3795 16.0958 19.3795L16.0137 19.3592Z" fill="black"/>
<path d="M4.92728 19.3592C5.0094 19.3795 5.0094 19.3795 5.0094 19.3795L4.92728 19.3592Z" fill="black"/>
<path d="M16.9786 19.3592C17.0402 19.3795 17.0402 19.3795 17.0402 19.3795L16.9786 19.3592Z" fill="black"/>
<path d="M8.54062 19.3592C8.60221 19.3795 8.60221 19.3795 8.60221 19.3795L8.54062 19.3592Z" fill="black"/>
<path d="M8.41745 19.3592C8.47904 19.3795 8.47904 19.3795 8.47904 19.3795L8.41745 19.3592Z" fill="black"/>
<path d="M6.15912 19.3592C6.22071 19.3795 6.22071 19.3795 6.22071 19.3795L6.15912 19.3592Z" fill="black"/>
<path d="M6.01541 19.3592C6.05647 19.3795 6.05647 19.3795 6.05647 19.3795L6.01541 19.3592Z" fill="black"/>
<path d="M5.4816 19.3592C5.52266 19.3795 5.52266 19.3795 5.52266 19.3795L5.4816 19.3592Z" fill="black"/>
<path d="M5.33789 19.3592C5.37895 19.3795 5.37895 19.3795 5.37895 19.3795L5.33789 19.3592Z" fill="black"/>
<path d="M9.27972 10.157C9.32078 10.1773 9.32078 10.1773 9.32078 10.1773L9.27972 10.157Z" fill="black"/>
</g>
<defs>
<clipPath id="clip0_43_13">
<rect width="24" height="22" fill="white"/>
</clipPath>
</defs>
</svg>
