<svg width="24" height="24" viewBox="0 0 24 24" fill="none" xmlns="http://www.w3.org/2000/svg">
<rect width="24" height="24" fill="white"/>
<rect x="2.5" y="7.5" width="19" height="9" rx="1.5" stroke="black"/>
<path d="M18.0244 14.05C17.8011 14.05 17.5911 14.0017 17.3944 13.905C17.2011 13.8083 17.0444 13.66 16.9244 13.46C16.8077 13.26 16.7494 13.0067 16.7494 12.7V12.6C16.7494 12.3067 16.8061 12.065 16.9194 11.875C17.0327 11.6817 17.1827 11.5383 17.3694 11.445C17.5561 11.3483 17.7577 11.3 17.9744 11.3C18.3644 11.3 18.6661 11.4067 18.8794 11.62C19.0927 11.8333 19.1994 12.135 19.1994 12.525V12.805H17.1894C17.1894 13.0117 17.2311 13.1767 17.3144 13.3C17.4011 13.4233 17.5077 13.5133 17.6344 13.57C17.7644 13.6233 17.8944 13.65 18.0244 13.65C18.2244 13.65 18.3777 13.6167 18.4844 13.55C18.5944 13.4833 18.6727 13.3917 18.7194 13.275H19.1494C19.0961 13.5283 18.9644 13.7217 18.7544 13.855C18.5477 13.985 18.3044 14.05 18.0244 14.05ZM17.9994 11.7C17.8627 11.7 17.7327 11.7267 17.6094 11.78C17.4861 11.83 17.3844 11.91 17.3044 12.02C17.2277 12.13 17.1894 12.2717 17.1894 12.445H18.7844C18.7811 12.2617 18.7427 12.1167 18.6694 12.01C18.5994 11.9 18.5061 11.8217 18.3894 11.775C18.2727 11.725 18.1427 11.7 17.9994 11.7Z" fill="black"/>
<path d="M15.198 14.05C15.0214 14.05 14.868 14.03 14.738 13.99C14.608 13.9467 14.4997 13.89 14.413 13.82C14.3264 13.75 14.2564 13.6683 14.203 13.575C14.153 13.4783 14.118 13.3783 14.098 13.275H14.538C14.5614 13.3817 14.623 13.475 14.723 13.555C14.8264 13.6317 14.9847 13.67 15.198 13.67C15.4447 13.67 15.6164 13.6317 15.713 13.555C15.8097 13.475 15.858 13.3817 15.858 13.275C15.858 13.2017 15.8364 13.1383 15.793 13.085C15.753 13.0283 15.6797 12.98 15.573 12.94C15.4697 12.9 15.3214 12.8667 15.128 12.84C14.9814 12.82 14.8497 12.7917 14.733 12.755C14.6164 12.715 14.5164 12.6633 14.433 12.6C14.3497 12.5367 14.2847 12.46 14.238 12.37C14.1947 12.28 14.173 12.1733 14.173 12.05C14.173 11.9167 14.2114 11.7933 14.288 11.68C14.3647 11.5667 14.4797 11.475 14.633 11.405C14.7864 11.335 14.9747 11.3 15.198 11.3C15.408 11.3 15.5814 11.3367 15.718 11.41C15.858 11.48 15.9664 11.5733 16.043 11.69C16.1197 11.8067 16.1714 11.935 16.198 12.075H15.758C15.7314 11.9583 15.6747 11.8633 15.588 11.79C15.5014 11.7167 15.3714 11.68 15.198 11.68C14.9814 11.68 14.8297 11.7167 14.743 11.79C14.6564 11.86 14.613 11.9467 14.613 12.05C14.613 12.17 14.6597 12.26 14.753 12.32C14.8497 12.38 15.0247 12.4267 15.278 12.46C15.4414 12.48 15.5864 12.51 15.713 12.55C15.8397 12.5867 15.9464 12.6383 16.033 12.705C16.1197 12.7683 16.1847 12.8467 16.228 12.94C16.2747 13.0333 16.298 13.145 16.298 13.275C16.298 13.415 16.258 13.5433 16.178 13.66C16.098 13.7767 15.9764 13.8717 15.813 13.945C15.653 14.015 15.448 14.05 15.198 14.05Z" fill="black"/>
<path d="M12.9852 14V11.35H13.4252V14H12.9852ZM13.2052 11C13.1185 11 13.0468 10.9717 12.9902 10.915C12.9335 10.8583 12.9052 10.7867 12.9052 10.7C12.9052 10.6133 12.9335 10.5417 12.9902 10.485C13.0468 10.4283 13.1185 10.4 13.2052 10.4C13.2918 10.4 13.3635 10.4283 13.4202 10.485C13.4768 10.5417 13.5052 10.6133 13.5052 10.7C13.5052 10.7867 13.4768 10.8583 13.4202 10.915C13.3635 10.9717 13.2918 11 13.2052 11Z" fill="black"/>
<path d="M9.63672 14V10.5H10.8617C11.1551 10.5 11.3984 10.5467 11.5917 10.64C11.7884 10.73 11.9367 10.855 12.0367 11.015C12.1367 11.1717 12.1867 11.35 12.1867 11.55C12.1867 11.7833 12.1167 11.9883 11.9767 12.165C11.8401 12.3383 11.6367 12.46 11.3667 12.53L12.2867 14H11.7317L10.8967 12.59H10.1067V14H9.63672ZM10.1067 12.19H10.8117C11.1351 12.19 11.3667 12.1317 11.5067 12.015C11.6467 11.895 11.7167 11.74 11.7167 11.55C11.7167 11.36 11.6467 11.2067 11.5067 11.09C11.3667 10.97 11.1351 10.91 10.8117 10.91H10.1067V12.19Z" fill="black"/>
<path d="M8.24883 14V11.35H8.68883V14H8.24883ZM8.46883 11C8.38216 11 8.3105 10.9717 8.25383 10.915C8.19716 10.8583 8.16883 10.7867 8.16883 10.7C8.16883 10.6133 8.19716 10.5417 8.25383 10.485C8.3105 10.4283 8.38216 10.4 8.46883 10.4C8.5555 10.4 8.62716 10.4283 8.68383 10.485C8.7405 10.5417 8.76883 10.6133 8.76883 10.7C8.76883 10.7867 8.7405 10.8583 8.68383 10.915C8.62716 10.9717 8.5555 11 8.46883 11Z" fill="black"/>
<path d="M4.5 14V10.5H4.97V11.995H6.83V10.5H7.3V14H6.83V12.405H4.97V14H4.5Z" fill="black"/>
</svg>
