<svg width="24" height="24" viewBox="0 0 24 24" fill="none" xmlns="http://www.w3.org/2000/svg">
<rect width="24" height="24" fill="white"/>
<rect x="2.5" y="7.5" width="19" height="9" rx="1.5" stroke="black"/>
<path d="M15.0381 15.08C14.7181 15.08 14.4088 15.0267 14.1101 14.92C13.8168 14.808 13.5528 14.6373 13.3181 14.408C13.0835 14.1787 12.8968 13.8853 12.7581 13.528C12.6248 13.1707 12.5581 12.7413 12.5581 12.24V12.08C12.5581 11.6 12.6248 11.1867 12.7581 10.84C12.8968 10.4933 13.0835 10.208 13.3181 9.984C13.5528 9.75467 13.8168 9.58667 14.1101 9.48C14.4088 9.37333 14.7181 9.32 15.0381 9.32C15.3581 9.32 15.6648 9.37333 15.9581 9.48C16.2568 9.58667 16.5235 9.75467 16.7581 9.984C16.9928 10.208 17.1768 10.4933 17.3101 10.84C17.4488 11.1867 17.5181 11.6 17.5181 12.08V12.24C17.5181 12.6933 17.4621 13.0853 17.3501 13.416C17.2381 13.7413 17.0888 14.0187 16.9021 14.248L17.4381 14.784L16.9821 15.24L16.4221 14.688C16.2195 14.8213 16.0008 14.92 15.7661 14.984C15.5315 15.048 15.2888 15.08 15.0381 15.08ZM15.0381 14.408C15.1928 14.408 15.3421 14.3893 15.4861 14.352C15.6355 14.3093 15.7741 14.248 15.9021 14.168L15.0381 13.296L15.4941 12.84L16.3581 13.712C16.4701 13.5413 16.5581 13.336 16.6221 13.096C16.6861 12.8507 16.7181 12.5653 16.7181 12.24V12.08C16.7181 11.5893 16.6381 11.192 16.4781 10.888C16.3181 10.5787 16.1101 10.352 15.8541 10.208C15.6035 10.064 15.3315 9.992 15.0381 9.992C14.7501 9.992 14.4781 10.064 14.2221 10.208C13.9661 10.352 13.7581 10.5787 13.5981 10.888C13.4381 11.192 13.3581 11.5893 13.3581 12.08V12.24C13.3581 12.7573 13.4381 13.176 13.5981 13.496C13.7581 13.816 13.9661 14.048 14.2221 14.192C14.4781 14.336 14.7501 14.408 15.0381 14.408Z" fill="black"/>
<path d="M6.8 15V9.4H7.552V11.792H10.528V9.4H11.28V15H10.528V12.448H7.552V15H6.8Z" fill="black"/>
</svg>
