<svg width="24" height="24" viewBox="0 0 24 24" fill="none" xmlns="http://www.w3.org/2000/svg">
<path d="M17 21.7501C16.5858 21.7501 16.25 21.4143 16.25 21.0001C16.25 20.5858 16.5858 20.2501 17 20.2501C17.978 20.2501 18.32 20.2431 18.582 20.1729C19.3584 19.9649 19.9658 19.3585 20.1738 18.5821C20.2439 18.32 20.25 17.9777 20.25 17.0001L20.25 7.00006C20.25 6.02237 20.2439 5.68007 20.1738 5.41803C19.9658 4.64158 19.3584 4.03526 18.582 3.82721C18.32 3.75706 17.978 3.75006 17 3.75006C16.5858 3.75006 16.25 3.41427 16.25 3.00006C16.25 2.58587 16.5858 2.25006 17 2.25006C17.8817 2.25006 18.4698 2.24381 18.9707 2.37799C20.2646 2.72475 21.2753 3.73532 21.6221 5.02936C21.7563 5.53024 21.75 6.11836 21.75 7.00006L21.75 17.0001C21.75 17.8818 21.7563 18.4699 21.6221 18.9708C21.2753 20.2647 20.2646 21.2754 18.9707 21.6221C18.4698 21.7563 17.8817 21.7501 17 21.7501Z" fill="black"/>
<path d="M3 11.25H14.6953C14.3096 10.82 13.7935 10.3364 13.2588 9.87207C12.7096 9.39523 12.1577 8.95222 11.7422 8.62792C11.5348 8.46607 11.3616 8.33406 11.2412 8.24316C11.1811 8.19776 11.1343 8.16232 11.1025 8.13867C11.0867 8.12684 11.0744 8.11818 11.0664 8.1123C11.0624 8.10936 11.0595 8.10685 11.0576 8.10546L11.0557 8.10449C10.7222 7.85888 10.6509 7.38918 10.8965 7.05566C11.1421 6.72216 11.6108 6.65092 11.9443 6.89648H11.9453L11.9463 6.89746C11.9469 6.89792 11.9482 6.89868 11.9492 6.89941C11.9516 6.90119 11.9547 6.90405 11.959 6.90722C11.9681 6.91395 11.9819 6.92379 11.999 6.93652C12.0332 6.96196 12.0829 6.99861 12.1455 7.04589C12.2712 7.14083 12.4497 7.278 12.6641 7.44531C13.0922 7.77943 13.6666 8.2395 14.2422 8.73925C14.8139 9.23567 15.4054 9.78596 15.8594 10.2998C16.0856 10.5559 16.2936 10.821 16.4492 11.0791C16.5924 11.3166 16.75 11.643 16.75 12L16.7432 12.1328C16.7109 12.4375 16.5744 12.7132 16.4492 12.9209C16.2936 13.179 16.0856 13.4441 15.8594 13.7002C15.4054 14.214 14.8139 14.7643 14.2422 15.2607C13.6668 15.7604 13.0932 16.2206 12.665 16.5547C12.4506 16.7221 12.2712 16.8591 12.1455 16.9541C12.0829 17.0014 12.0332 17.038 11.999 17.0635C11.9819 17.0762 11.9681 17.086 11.959 17.0928C11.9547 17.0959 11.9516 17.0988 11.9492 17.1006C11.9482 17.1013 11.9469 17.1021 11.9463 17.1025L11.9453 17.1035H11.9443C11.6108 17.349 11.1421 17.2778 10.8965 16.9443C10.6509 16.6108 10.7222 16.1421 11.0557 15.8965V15.8955L11.0576 15.8945C11.0595 15.8931 11.0625 15.8906 11.0664 15.8877C11.0744 15.8818 11.0867 15.8732 11.1025 15.8613C11.1343 15.8377 11.1811 15.8022 11.2412 15.7568C11.3616 15.6659 11.5348 15.5339 11.7422 15.3721C12.1577 15.0478 12.7096 14.6048 13.2588 14.1279C13.7935 13.6636 14.3096 13.18 14.6953 12.75H3C2.58579 12.75 2.25001 12.4142 2.25 12C2.25 11.5858 2.58579 11.25 3 11.25Z" fill="black"/>
</svg>
