<svg width="24" height="24" viewBox="0 0 24 24" fill="none" xmlns="http://www.w3.org/2000/svg">
<rect width="24" height="24" fill="white"/>
<rect x="2.5" y="7.5" width="19" height="9" rx="1.5" stroke="black"/>
<path d="M14.0772 15.08C13.7572 15.08 13.4479 15.0267 13.1492 14.92C12.8559 14.808 12.5919 14.6373 12.3572 14.408C12.1225 14.1787 11.9359 13.8853 11.7972 13.528C11.6639 13.1707 11.5972 12.7413 11.5972 12.24V12.08C11.5972 11.6 11.6639 11.1867 11.7972 10.84C11.9359 10.4933 12.1225 10.208 12.3572 9.984C12.5919 9.75467 12.8559 9.58667 13.1492 9.48C13.4479 9.37333 13.7572 9.32 14.0772 9.32C14.3972 9.32 14.7039 9.37333 14.9972 9.48C15.2959 9.58667 15.5625 9.75467 15.7972 9.984C16.0319 10.208 16.2159 10.4933 16.3492 10.84C16.4879 11.1867 16.5572 11.6 16.5572 12.08V12.24C16.5572 12.6933 16.5012 13.0853 16.3892 13.416C16.2772 13.7413 16.1279 14.0187 15.9412 14.248L16.4772 14.784L16.0212 15.24L15.4612 14.688C15.2585 14.8213 15.0399 14.92 14.8052 14.984C14.5705 15.048 14.3279 15.08 14.0772 15.08ZM14.0772 14.408C14.2319 14.408 14.3812 14.3893 14.5252 14.352C14.6745 14.3093 14.8132 14.248 14.9412 14.168L14.0772 13.296L14.5332 12.84L15.3972 13.712C15.5092 13.5413 15.5972 13.336 15.6612 13.096C15.7252 12.8507 15.7572 12.5653 15.7572 12.24V12.08C15.7572 11.5893 15.6772 11.192 15.5172 10.888C15.3572 10.5787 15.1492 10.352 14.8932 10.208C14.6425 10.064 14.3705 9.992 14.0772 9.992C13.7892 9.992 13.5172 10.064 13.2612 10.208C13.0052 10.352 12.7972 10.5787 12.6372 10.888C12.4772 11.192 12.3972 11.5893 12.3972 12.08V12.24C12.3972 12.7573 12.4772 13.176 12.6372 13.496C12.7972 13.816 13.0052 14.048 13.2612 14.192C13.5172 14.336 13.7892 14.408 14.0772 14.408Z" fill="black"/>
<path d="M8.56 15.08C8.112 15.08 7.73867 15.0107 7.44 14.872C7.14667 14.7333 6.92 14.5467 6.76 14.312C6.6 14.072 6.49333 13.808 6.44 13.52H7.192C7.25067 13.7653 7.384 13.976 7.592 14.152C7.8 14.3227 8.12267 14.408 8.56 14.408C9.008 14.408 9.34667 14.3227 9.576 14.152C9.81067 13.9813 9.928 13.7707 9.928 13.52C9.928 13.312 9.88 13.1467 9.784 13.024C9.688 12.896 9.528 12.7893 9.304 12.704C9.08533 12.6133 8.78667 12.5253 8.408 12.44C7.992 12.3493 7.65067 12.2427 7.384 12.12C7.11733 11.9973 6.92 11.832 6.792 11.624C6.664 11.416 6.6 11.1413 6.6 10.8C6.6 10.5227 6.67733 10.2747 6.832 10.056C6.992 9.832 7.21867 9.65333 7.512 9.52C7.80533 9.38667 8.15467 9.32 8.56 9.32C8.96 9.32 9.29333 9.38667 9.56 9.52C9.82667 9.65333 10.0347 9.832 10.184 10.056C10.3333 10.2747 10.432 10.5227 10.48 10.8H9.728C9.67467 10.576 9.56 10.3867 9.384 10.232C9.21333 10.072 8.93867 9.992 8.56 9.992C8.176 9.992 7.87733 10.072 7.664 10.232C7.456 10.3867 7.352 10.576 7.352 10.8C7.352 11.0933 7.46133 11.3093 7.68 11.448C7.89867 11.5813 8.248 11.7013 8.728 11.808C9.07467 11.8827 9.37067 11.968 9.616 12.064C9.86667 12.16 10.0693 12.2747 10.224 12.408C10.384 12.536 10.4987 12.6907 10.568 12.872C10.6427 13.0533 10.68 13.2693 10.68 13.52C10.68 13.808 10.5947 14.072 10.424 14.312C10.2587 14.5467 10.0187 14.7333 9.704 14.872C9.38933 15.0107 9.008 15.08 8.56 15.08Z" fill="black"/>
</svg>
